<svg width="1803" height="1803" viewBox="0 0 1803 1803" fill="none" xmlns="http://www.w3.org/2000/svg">
<circle cx="901.5" cy="901.5" r="901.5" fill="white"/>
<g filter="url(#filter0_d_36_23)">
<path d="M130.532 789.273H189.128L251.016 940.261H253.649L315.537 789.273H374.133V1014H328.046V867.73H326.181L268.024 1012.9H236.641L178.484 867.181H176.619V1014H130.532V789.273ZM412.401 1014V845.455H459.146V1014H412.401ZM435.883 823.728C428.934 823.728 422.972 821.424 417.997 816.815C413.096 812.133 410.646 806.537 410.646 800.026C410.646 793.589 413.096 788.066 417.997 783.457C422.972 778.775 428.934 776.434 435.883 776.434C442.833 776.434 448.758 778.775 453.66 783.457C458.634 788.066 461.121 793.589 461.121 800.026C461.121 806.537 458.634 812.133 453.66 816.815C448.758 821.424 442.833 823.728 435.883 823.728ZM543.337 916.56V1014H496.592V845.455H541.142V875.191H543.117C546.848 865.389 553.103 857.635 561.881 851.929C570.659 846.15 581.303 843.26 593.812 843.26C605.517 843.26 615.722 845.82 624.427 850.941C633.132 856.062 639.899 863.377 644.727 872.887C649.555 882.324 651.969 893.589 651.969 906.684V1014H605.224V915.023C605.298 904.709 602.664 896.662 597.324 890.883C591.984 885.031 584.632 882.104 575.268 882.104C568.977 882.104 563.417 883.458 558.589 886.164C553.834 888.871 550.103 892.821 547.397 898.015C544.763 903.136 543.41 909.317 543.337 916.56ZM764.964 1017.29C747.7 1017.29 732.85 1013.63 720.414 1006.32C708.051 998.93 698.541 988.689 691.884 975.594C685.3 962.5 682.008 947.43 682.008 930.386C682.008 913.121 685.337 897.979 691.994 884.957C698.724 871.863 708.27 861.658 720.633 854.343C732.996 846.954 747.7 843.26 764.745 843.26C779.448 843.26 792.323 845.93 803.37 851.27C814.416 856.61 823.158 864.109 829.595 873.765C836.033 883.421 839.581 894.76 840.239 907.781H796.127C794.884 899.369 791.592 892.602 786.252 887.481C780.985 882.287 774.072 879.69 765.513 879.69C758.271 879.69 751.943 881.665 746.529 885.616C741.189 889.493 737.019 895.162 734.02 902.624C731.021 910.086 729.521 919.12 729.521 929.727C729.521 940.481 730.984 949.625 733.91 957.16C736.91 964.695 741.116 970.437 746.529 974.387C751.943 978.338 758.271 980.313 765.513 980.313C770.853 980.313 775.644 979.216 779.887 977.021C784.203 974.826 787.751 971.644 790.531 967.474C793.384 963.232 795.25 958.147 796.127 952.222H840.239C839.507 965.097 835.996 976.436 829.705 986.238C823.487 995.968 814.891 1003.58 803.918 1009.06C792.945 1014.55 779.96 1017.29 764.964 1017.29ZM946.32 1017.29C929.276 1017.29 914.535 1013.67 902.099 1006.43C889.736 999.113 880.19 988.945 873.46 975.924C866.73 962.829 863.365 947.65 863.365 930.386C863.365 912.975 866.73 897.759 873.46 884.738C880.19 871.643 889.736 861.475 902.099 854.233C914.535 846.918 929.276 843.26 946.32 843.26C963.365 843.26 978.069 846.918 990.432 854.233C1002.87 861.475 1012.45 871.643 1019.18 884.738C1025.91 897.759 1029.28 912.975 1029.28 930.386C1029.28 947.65 1025.91 962.829 1019.18 975.924C1012.45 988.945 1002.87 999.113 990.432 1006.43C978.069 1013.67 963.365 1017.29 946.32 1017.29ZM946.54 981.081C954.294 981.081 960.768 978.886 965.962 974.497C971.156 970.035 975.07 963.963 977.703 956.282C980.41 948.601 981.763 939.859 981.763 930.056C981.763 920.254 980.41 911.512 977.703 903.831C975.07 896.15 971.156 890.078 965.962 885.616C960.768 881.153 954.294 878.922 946.54 878.922C938.713 878.922 932.129 881.153 926.789 885.616C921.521 890.078 917.535 896.15 914.828 903.831C912.194 911.512 910.878 920.254 910.878 930.056C910.878 939.859 912.194 948.601 914.828 956.282C917.535 963.963 921.521 970.035 926.789 974.497C932.129 978.886 938.713 981.081 946.54 981.081ZM1059.67 1014V845.455H1104.22V875.191H1106.2C1109.71 865.316 1115.56 857.525 1123.75 851.819C1131.95 846.113 1141.75 843.26 1153.16 843.26C1164.72 843.26 1174.56 846.15 1182.68 851.929C1190.8 857.635 1196.21 865.389 1198.92 875.191H1200.67C1204.11 865.535 1210.33 857.817 1219.33 852.038C1228.4 846.186 1239.12 843.26 1251.48 843.26C1267.21 843.26 1279.97 848.271 1289.78 858.293C1299.65 868.242 1304.59 882.36 1304.59 900.649V1014H1257.95V909.866C1257.95 900.502 1255.47 893.48 1250.49 888.798C1245.52 884.116 1239.3 881.775 1231.84 881.775C1223.35 881.775 1216.73 884.482 1211.98 889.895C1207.22 895.235 1204.84 902.295 1204.84 911.073V1014H1159.53V908.879C1159.53 900.612 1157.15 894.028 1152.39 889.127C1147.71 884.226 1141.53 881.775 1133.85 881.775C1128.66 881.775 1123.97 883.092 1119.8 885.725C1115.71 888.286 1112.45 891.907 1110.04 896.589C1107.62 901.197 1106.42 906.611 1106.42 912.829V1014H1059.67ZM1341.51 1077.2V845.455H1387.6V873.765H1389.69C1391.73 869.229 1394.7 864.621 1398.57 859.939C1402.52 855.184 1407.64 851.234 1413.94 848.088C1420.3 844.869 1428.2 843.26 1437.64 843.26C1449.93 843.26 1461.27 846.479 1471.65 852.916C1482.04 859.281 1490.34 868.9 1496.56 881.775C1502.78 894.577 1505.89 910.634 1505.89 929.947C1505.89 948.747 1502.85 964.621 1496.78 977.57C1490.78 990.445 1482.59 1000.21 1472.2 1006.87C1461.89 1013.45 1450.33 1016.74 1437.53 1016.74C1428.46 1016.74 1420.74 1015.24 1414.37 1012.24C1408.08 1009.25 1402.93 1005.48 1398.9 1000.94C1394.88 996.333 1391.81 991.688 1389.69 987.006H1388.26V1077.2H1341.51ZM1387.27 929.727C1387.27 939.749 1388.66 948.491 1391.44 955.953C1394.22 963.414 1398.24 969.23 1403.51 973.4C1408.78 977.496 1415.18 979.545 1422.71 979.545C1430.32 979.545 1436.76 977.46 1442.03 973.29C1447.29 969.047 1451.28 963.195 1453.99 955.733C1456.77 948.199 1458.16 939.53 1458.16 929.727C1458.16 919.998 1456.8 911.439 1454.1 904.05C1451.39 896.662 1447.4 890.883 1442.14 886.713C1436.87 882.543 1430.39 880.458 1422.71 880.458C1415.11 880.458 1408.67 882.47 1403.4 886.494C1398.21 890.517 1394.22 896.223 1391.44 903.611C1388.66 911 1387.27 919.705 1387.27 929.727ZM1677.29 893.516L1634.49 896.15C1633.76 892.492 1632.19 889.2 1629.77 886.274C1627.36 883.275 1624.18 880.897 1620.23 879.142C1616.35 877.313 1611.71 876.398 1606.29 876.398C1599.05 876.398 1592.94 877.935 1587.97 881.007C1582.99 884.006 1580.51 888.03 1580.51 893.077C1580.51 897.101 1582.12 900.502 1585.33 903.282C1588.55 906.062 1594.08 908.293 1601.9 909.976L1632.41 916.121C1648.79 919.486 1661.01 924.899 1669.06 932.361C1677.1 939.822 1681.13 949.625 1681.13 961.768C1681.13 972.815 1677.87 982.507 1671.36 990.847C1664.92 999.186 1656.07 1005.7 1644.81 1010.38C1633.62 1014.99 1620.7 1017.29 1606.07 1017.29C1583.76 1017.29 1565.98 1012.65 1552.74 1003.36C1539.58 993.993 1531.86 981.264 1529.59 965.17L1575.57 962.756C1576.96 969.559 1580.32 974.753 1585.66 978.338C1591 981.849 1597.84 983.605 1606.18 983.605C1614.38 983.605 1620.96 982.032 1625.93 978.886C1630.98 975.668 1633.54 971.534 1633.62 966.487C1633.54 962.244 1631.75 958.769 1628.24 956.062C1624.73 953.283 1619.31 951.161 1612 949.698L1582.81 943.882C1566.35 940.591 1554.1 934.885 1546.05 926.765C1538.08 918.645 1534.09 908.293 1534.09 895.711C1534.09 884.884 1537.02 875.557 1542.87 867.73C1548.79 859.902 1557.1 853.867 1567.78 849.624C1578.53 845.381 1591.11 843.26 1605.52 843.26C1626.81 843.26 1643.56 847.759 1655.78 856.757C1668.07 865.755 1675.24 878.008 1677.29 893.516Z" fill="black"/>
</g>
<defs>
<filter id="filter0_d_36_23" x="126.532" y="776.434" width="1558.6" height="308.77" filterUnits="userSpaceOnUse" color-interpolation-filters="sRGB">
<feFlood flood-opacity="0" result="BackgroundImageFix"/>
<feColorMatrix in="SourceAlpha" type="matrix" values="0 0 0 0 0 0 0 0 0 0 0 0 0 0 0 0 0 0 127 0" result="hardAlpha"/>
<feOffset dy="4"/>
<feGaussianBlur stdDeviation="2"/>
<feComposite in2="hardAlpha" operator="out"/>
<feColorMatrix type="matrix" values="0 0 0 0 0 0 0 0 0 0 0 0 0 0 0 0 0 0 0.25 0"/>
<feBlend mode="normal" in2="BackgroundImageFix" result="effect1_dropShadow_36_23"/>
<feBlend mode="normal" in="SourceGraphic" in2="effect1_dropShadow_36_23" result="shape"/>
</filter>
</defs>
</svg>
